<svg xmlns="http://www.w3.org/2000/svg" xmlns:xlink="http://www.w3.org/1999/xlink" xmlns:fi="http://pattern.flaticon.com/" x="0" y="0" width="250" height="180" viewBox="0 0 364.5833333333333 262.5"><rect x="0px" y="0px" width="100%" height="100%" opacity="1" fill="#e72b00"/><defs><g transform="matrix(0.1171875 0 0 0.1171875 68 105)" id="L1_5"><path d="m494.47 24.725h-476.94c-9.666 0-17.53 7.864-17.53 17.53v323.678c0 9.666 7.864 17.53 17.53 17.53h98.577l2.023 9.414c2.152 10.021 10.293 17.639 20.14 19.397-4.048 7.262-6.365 15.616-6.365 24.504 0 27.844 22.653 50.497 50.497 50.497s50.497-22.653 50.497-50.497c0-8.729-2.228-16.947-6.143-24.118h41.938c-3.915 7.171-6.143 15.389-6.143 24.118 0 27.844 22.653 50.497 50.497 50.497s50.497-22.653 50.497-50.497c0-8.788-2.261-17.056-6.225-24.261 10.649-1.096 19.673-9.011 21.957-19.641l54.564-253.956h63.132v227.013c0 1.381-1.123 2.504-2.504 2.504h-81.859c-4.15 0-7.513 3.363-7.513 7.513s3.363 7.513 7.513 7.513h81.859c9.666 0 17.53-7.864 17.53-17.53v-323.678c.001-9.666-7.863-17.53-17.529-17.53zm-312.068 447.524c-19.559 0-35.472-15.913-35.472-35.472s15.912-35.472 35.472-35.472 35.472 15.913 35.472 35.472c0 19.56-15.913 35.472-35.472 35.472zm130.647 0c-19.559 0-35.472-15.913-35.472-35.472s15.913-35.472 35.472-35.472 35.472 15.913 35.472 35.472c-.001 19.56-15.914 35.472-35.472 35.472zm162.559-348.355c5.038-4.584 8.204-11.19 8.204-18.521 0-13.809-11.234-25.043-25.043-25.043h-23.634c-23.138 0-43.46 16.42-48.322 39.042l-.971 4.521h-70.945c-4.15 0-7.513 3.363-7.513 7.513s3.363 7.513 7.513 7.513h67.718l-7.625 35.491h-272.805c-7.602 0-14.702 3.392-19.48 9.305-4.777 5.912-6.601 13.566-5.004 20.999l18.524 86.217c.872 4.058 4.865 6.633 8.923 5.768 4.056-.872 6.638-4.867 5.767-8.923l-18.524-86.217c-.638-2.974.091-6.036 2.002-8.401 1.911-2.364 4.751-3.721 7.792-3.721h278.875c3.541 0 6.601-2.473 7.346-5.935l13.1-60.973c3.383-15.745 17.527-27.172 33.631-27.172h23.634c5.523 0 10.017 4.494 10.017 10.017s-4.494 10.017-10.017 10.017h-23.634c-6.724 0-12.631 4.772-14.045 11.348l-56.504 262.983c-.985 4.585-5.103 7.913-9.793 7.913h-9.887c-8.697-7.091-19.788-11.353-31.858-11.353s-23.161 4.262-31.858 11.353h-66.93c-8.697-7.091-19.788-11.353-31.858-11.353s-23.161 4.262-31.858 11.353h-7.93c-4.69 0-8.809-3.328-9.794-7.913l-15.419-71.761c-.871-4.058-4.862-6.63-8.923-5.768-4.057.872-6.638 4.867-5.767 8.923l10.168 47.322h-95.351c-1.381 0-2.504-1.123-2.504-2.504v-227.014h265.121c4.15 0 7.513-3.363 7.513-7.513s-3.363-7.513-7.513-7.513h-265.121v-81.64c0-1.381 1.124-2.504 2.504-2.504h476.94c1.381 0 2.504 1.123 2.504 2.504v81.64z"/><circle cx="55" cy="81" r="14"/><circle cx="100" cy="81" r="14"/><circle cx="144" cy="81" r="14"/><path d="m269.819 334.913h-44.186c-2.1 0-4.104.878-5.526 2.423s-2.134 3.614-1.961 5.706l2.278 27.661c.321 3.897 3.577 6.897 7.487 6.897h39.631c3.91 0 7.167-2.999 7.487-6.897l2.277-27.661c.172-2.092-.539-4.161-1.961-5.706-1.423-1.544-3.427-2.423-5.526-2.423zm-9.198 27.661h-25.791l-1.04-12.635h27.873z"/><path d="m122.479 246.223c.744 3.462 3.804 5.935 7.345 5.935h52.577c4.268.093 7.93-3.884 7.487-8.129l-2.277-27.661c-.321-3.897-3.577-6.897-7.487-6.897h-56.243c-4.643-.116-8.434 4.577-7.345 9.091zm50.726-21.726 1.04 12.635h-38.35l-2.715-12.635z"/><path d="m150.834 334.913c-2.27 0-4.418 1.026-5.844 2.791-1.426 1.766-1.978 4.081-1.501 6.3l5.943 27.661c.744 3.462 3.804 5.935 7.345 5.935h35.954c2.1 0 4.104-.878 5.526-2.423s2.134-3.614 1.961-5.706l-2.278-27.661c-.321-3.897-3.577-6.897-7.487-6.897zm12.013 27.661-2.715-12.635h23.401l1.04 12.635z"/><path d="m137.357 272.192c-2.27 0-4.417 1.026-5.844 2.791-1.426 1.766-1.978 4.081-1.501 6.3l5.943 27.662c.743 3.462 3.804 5.935 7.345 5.935h44.266c2.1 0 4.104-.878 5.526-2.423s2.134-3.614 1.961-5.706l-2.278-27.662c-.321-3.897-3.577-6.897-7.487-6.897zm12.013 27.661-2.715-12.636h31.713l1.04 12.636z"/><path d="m210.094 245.261c.321 3.897 3.577 6.897 7.487 6.897h60.288c3.91 0 7.167-2.999 7.487-6.897l2.277-27.661c.44-4.245-3.218-8.222-7.488-8.129h-64.843c-4.265-.093-7.932 3.884-7.487 8.129zm61.896-20.764-1.041 12.635h-46.449l-1.04-12.635z"/><path d="m307.885 314.879h46.223c3.541 0 6.601-2.473 7.346-5.935l5.943-27.662c.476-2.219-.075-4.534-1.502-6.3-1.426-1.765-3.574-2.791-5.844-2.791h-49.888c-3.91 0-7.167 2.999-7.487 6.897l-2.277 27.662c-.172 2.092.539 4.161 1.961 5.706 1.421 1.544 3.425 2.423 5.525 2.423zm9.197-27.662h33.67l-2.715 12.636h-31.996z"/><path d="m313.049 252.158h54.535c3.541 0 6.601-2.473 7.346-5.935l5.943-27.661c1.088-4.514-2.703-9.206-7.346-9.091h-58.2c-3.91 0-7.167 2.999-7.487 6.897l-2.277 27.661c-.445 4.245 3.218 8.222 7.486 8.129zm9.197-27.661h41.982l-2.715 12.635h-40.308z"/><path d="m274.983 272.192h-54.515c-2.1 0-4.104.878-5.526 2.423s-2.134 3.614-1.961 5.706l2.277 27.662c.321 3.897 3.577 6.897 7.487 6.897h49.96c3.91 0 7.167-2.999 7.487-6.897l2.277-27.662c.172-2.092-.539-4.161-1.961-5.706s-3.426-2.423-5.525-2.423zm-9.198 27.661h-36.12l-1.04-12.636h38.201z"/><path d="m302.72 377.599h37.91c3.541 0 6.601-2.473 7.346-5.935l5.944-27.661c.476-2.219-.075-4.534-1.502-6.3-1.426-1.765-3.574-2.791-5.844-2.791h-41.576c-3.91 0-7.167 2.999-7.487 6.897l-2.277 27.661c-.172 2.092.539 4.161 1.961 5.706s3.426 2.423 5.525 2.423zm9.198-27.66h25.357l-2.715 12.635h-23.683z"/><path d="m182.402 423.882c-7.122 0-12.895 5.774-12.895 12.895 0 7.122 5.773 12.896 12.895 12.896s12.895-5.774 12.895-12.896c0-7.121-5.773-12.895-12.895-12.895z"/><path d="m313.049 423.882c-7.122 0-12.895 5.774-12.895 12.895 0 7.122 5.773 12.896 12.895 12.896s12.895-5.774 12.895-12.896c0-7.121-5.773-12.895-12.895-12.895z"/></g><g transform="matrix(0.1171875 0 0 0.1171875 67 21.000002188682515)" id="L1_6"><path d="m129.73 135.19c0-6.19-5.03-11.23-11.22-11.23h-18.12v22.49c8.52 0 17.97-.03 18.12-.03 6.19 0 11.22-5.03 11.22-11.23z"/><path d="m124.29 176.45c-20.52 0-16.01-.01-23.9.03v31.41c9-.03 19.5-.07 23.9-.07 8.65 0 15.68-7.03 15.68-15.68s-7.03-15.69-15.68-15.69z"/><path d="m493.27 0h-474.54c-10.33 0-18.73 8.4-18.73 18.73v285.53c0 10.33 8.4 18.74 18.73 18.74h167.76l31.4-39.99c18.65-26.15 57.58-26.14 76.22 0l31.4 39.99h167.76c10.33 0 18.73-8.41 18.73-18.74v-285.53c0-10.33-8.4-18.73-18.73-18.73zm-368.98 237.82c-7.98 0-38.9.14-38.9.14-8.3 0-15-6.74-15-15v-114c0-8.28 6.72-15 15-15h33.12c22.73 0 41.22 18.5 41.22 41.23 0 8.01-2.3 15.49-6.27 21.82 10.08 8.39 16.51 21.02 16.51 35.13 0 25.19-20.49 45.68-45.68 45.68zm186.31-50.5c0 31.2-28.3 50.64-55.24 50.64-27.25 0-53.96-21.04-53.96-50.56v-78.44c0-8.28 6.71-15 15-15 8.28 0 15 6.72 15 15v78.44c0 5.95 1.86 11.1 10.95 16.91 14.85 9.48 38.25-.66 38.25-16.99v-78.36c0-8.28 6.72-15 15-15 8.29 0 15 6.72 15 15zm128.27-69.88-33.69 51.76-.14 53.79c-.02 8.28-6.73 14.97-15 14.97h-.03c-8.29-.02-14.99-6.75-14.97-15.04l.14-53.75-33.96-52c-4.53-6.94-2.58-16.24 4.35-20.77 6.94-4.52 16.24-2.57 20.76 4.36l23.84 36.5 23.56-36.19c4.52-6.94 13.81-8.91 20.75-4.39 6.95 4.52 8.91 13.81 4.39 20.76z"/><path d="m269.981 300.858c-6.661-9.959-21.302-9.959-27.963 0l-83.924 106.897c-7.475 11.176.535 26.172 13.981 26.172h25.621c9.29 0 16.82 7.531 16.82 16.82v44.432c0 9.29 7.531 16.82 16.82 16.82h49.324c9.29 0 16.82-7.531 16.82-16.82v-44.432c0-9.29 7.531-16.82 16.82-16.82h25.621c13.446 0 21.457-14.996 13.981-26.172z"/></g><g transform="matrix(2.5 0 0 2.5 237 20)" id="L1_8"><path d="m16.5 24c-.051 0-.103-.008-.152-.024-.207-.066-.348-.259-.348-.476v-10c0-.202.122-.385.309-.462s.402-.034.545.108l7 7c.15.15.189.379.097.57-.091.191-.296.3-.506.28l-4.208-.468-2.329 3.261c-.096.135-.25.211-.408.211zm.5-9.293v7.233l1.593-2.23c.105-.147.287-.225.463-.207l3.083.343z"/><path d="m11 7h-3c-.276 0-.5-.224-.5-.5s.224-.5.5-.5h3c.276 0 .5.224.5.5s-.224.5-.5.5z"/><path d="m11 9c-.276 0-.5-.224-.5-.5v-5c0-.276.224-.5.5-.5s.5.224.5.5v5c0 .276-.224.5-.5.5z"/><path d="m8 9c-.276 0-.5-.224-.5-.5v-5c0-.276.224-.5.5-.5s.5.224.5.5v5c0 .276-.224.5-.5.5z"/><path d="m15 9h-1c-.827 0-1.5-.673-1.5-1.5v-3c0-.827.673-1.5 1.5-1.5h1c.827 0 1.5.673 1.5 1.5v3c0 .827-.673 1.5-1.5 1.5zm-1-5c-.275 0-.5.224-.5.5v3c0 .276.225.5.5.5h1c.275 0 .5-.224.5-.5v-3c0-.276-.225-.5-.5-.5z"/><path d="m4.25 9h-1.75c-.276 0-.5-.224-.5-.5s.224-.5.5-.5h1.75c.413 0 .75-.336.75-.75s-.337-.75-.75-.75h-.5c-.965 0-1.75-.785-1.75-1.75s.785-1.75 1.75-1.75h1.75c.276 0 .5.224.5.5s-.224.5-.5.5h-1.75c-.413 0-.75.336-.75.75s.337.75.75.75h.5c.965 0 1.75.785 1.75 1.75s-.785 1.75-1.75 1.75z"/><path d="m18.5 9c-.276 0-.5-.224-.5-.5v-5c0-.276.224-.5.5-.5h1.5c1.103 0 2 .897 2 2s-.897 2-2 2h-1v1.5c0 .276-.224.5-.5.5zm.5-3h1c.552 0 1-.449 1-1s-.448-1-1-1h-1z"/><path d="m21.5 12h-2c-.276 0-.5-.224-.5-.5s.224-.5.5-.5h2c.827 0 1.5-.673 1.5-1.5v-7c0-.827-.673-1.5-1.5-1.5h-19c-.827 0-1.5.673-1.5 1.5v7c0 .827.673 1.5 1.5 1.5h11c.276 0 .5.224.5.5s-.224.5-.5.5h-11c-1.379 0-2.5-1.122-2.5-2.5v-7c0-1.378 1.121-2.5 2.5-2.5h19c1.379 0 2.5 1.122 2.5 2.5v7c0 1.378-1.121 2.5-2.5 2.5z"/></g><path d="m512.018 97.936h-421.712l-15.298-97.911h-75.008v30h49.332l65.314 418.027h29.239c-2.049 5.268-3.186 10.987-3.186 16.971 0 25.899 21.071 46.97 46.971 46.97s46.971-21.071 46.971-46.97c0-5.983-1.137-11.703-3.186-16.971h123.765c-2.049 5.268-3.185 10.987-3.185 16.971 0 25.899 21.07 46.97 46.97 46.97s46.971-21.071 46.971-46.97c0-25.9-21.071-46.971-46.971-46.971h-258.683l-7.863-50.326h324.631zm-302.633 187.895h-30v-106h30zm60.004 0h-30v-106h30zm60.004 0h-30v-106h30zm60.003 0h-30v-106h30z" transform="matrix(0.1171833798289299 0 0 0.1171833798289299 238 98.99999370597152)" id="L1_13"/><g transform="matrix(2.5 0 0 2.5 51 263)"><path d="m16.5 24c-.051 0-.103-.008-.152-.024-.207-.066-.348-.259-.348-.476v-10c0-.202.122-.385.309-.462s.402-.034.545.108l7 7c.15.15.189.379.097.57-.091.191-.296.3-.506.28l-4.208-.468-2.329 3.261c-.096.135-.25.211-.408.211zm.5-9.293v7.233l1.593-2.23c.105-.147.287-.225.463-.207l3.083.343z"/><path d="m11 7h-3c-.276 0-.5-.224-.5-.5s.224-.5.5-.5h3c.276 0 .5.224.5.5s-.224.5-.5.5z"/><path d="m11 9c-.276 0-.5-.224-.5-.5v-5c0-.276.224-.5.5-.5s.5.224.5.5v5c0 .276-.224.5-.5.5z"/><path d="m8 9c-.276 0-.5-.224-.5-.5v-5c0-.276.224-.5.5-.5s.5.224.5.5v5c0 .276-.224.5-.5.5z"/><path d="m15 9h-1c-.827 0-1.5-.673-1.5-1.5v-3c0-.827.673-1.5 1.5-1.5h1c.827 0 1.5.673 1.5 1.5v3c0 .827-.673 1.5-1.5 1.5zm-1-5c-.275 0-.5.224-.5.5v3c0 .276.225.5.5.5h1c.275 0 .5-.224.5-.5v-3c0-.276-.225-.5-.5-.5z"/><path d="m4.25 9h-1.75c-.276 0-.5-.224-.5-.5s.224-.5.5-.5h1.75c.413 0 .75-.336.75-.75s-.337-.75-.75-.75h-.5c-.965 0-1.75-.785-1.75-1.75s.785-1.75 1.75-1.75h1.75c.276 0 .5.224.5.5s-.224.5-.5.5h-1.75c-.413 0-.75.336-.75.75s.337.75.75.75h.5c.965 0 1.75.785 1.75 1.75s-.785 1.75-1.75 1.75z"/><path d="m18.5 9c-.276 0-.5-.224-.5-.5v-5c0-.276.224-.5.5-.5h1.5c1.103 0 2 .897 2 2s-.897 2-2 2h-1v1.5c0 .276-.224.5-.5.5zm.5-3h1c.552 0 1-.449 1-1s-.448-1-1-1h-1z"/><path d="m21.5 12h-2c-.276 0-.5-.224-.5-.5s.224-.5.5-.5h2c.827 0 1.5-.673 1.5-1.5v-7c0-.827-.673-1.5-1.5-1.5h-19c-.827 0-1.5.673-1.5 1.5v7c0 .827.673 1.5 1.5 1.5h11c.276 0 .5.224.5.5s-.224.5-.5.5h-11c-1.379 0-2.5-1.122-2.5-2.5v-7c0-1.378 1.121-2.5 2.5-2.5h19c1.379 0 2.5 1.122 2.5 2.5v7c0 1.378-1.121 2.5-2.5 2.5z"/></g><path d="m512.018 97.936h-421.712l-15.298-97.911h-75.008v30h49.332l65.314 418.027h29.239c-2.049 5.268-3.186 10.987-3.186 16.971 0 25.899 21.071 46.97 46.971 46.97s46.971-21.071 46.971-46.97c0-5.983-1.137-11.703-3.186-16.971h123.765c-2.049 5.268-3.185 10.987-3.185 16.971 0 25.899 21.07 46.97 46.97 46.97s46.971-21.071 46.971-46.97c0-25.9-21.071-46.971-46.971-46.971h-258.683l-7.863-50.326h324.631zm-302.633 187.895h-30v-106h30zm60.004 0h-30v-106h30zm60.004 0h-30v-106h30zm60.003 0h-30v-106h30z" transform="matrix(0.1171833798289299 0 0 0.1171833798289299 43 167.99999370597152)"/><g transform="matrix(0.1171875 0 0 0.1171875 219 259.00000340461725)"><path d="m129.73 135.19c0-6.19-5.03-11.23-11.22-11.23h-18.12v22.49c8.52 0 17.97-.03 18.12-.03 6.19 0 11.22-5.03 11.22-11.23z"/><path d="m124.29 176.45c-20.52 0-16.01-.01-23.9.03v31.41c9-.03 19.5-.07 23.9-.07 8.65 0 15.68-7.03 15.68-15.68s-7.03-15.69-15.68-15.69z"/><path d="m493.27 0h-474.54c-10.33 0-18.73 8.4-18.73 18.73v285.53c0 10.33 8.4 18.74 18.73 18.74h167.76l31.4-39.99c18.65-26.15 57.58-26.14 76.22 0l31.4 39.99h167.76c10.33 0 18.73-8.41 18.73-18.74v-285.53c0-10.33-8.4-18.73-18.73-18.73zm-368.98 237.82c-7.98 0-38.9.14-38.9.14-8.3 0-15-6.74-15-15v-114c0-8.28 6.72-15 15-15h33.12c22.73 0 41.22 18.5 41.22 41.23 0 8.01-2.3 15.49-6.27 21.82 10.08 8.39 16.51 21.02 16.51 35.13 0 25.19-20.49 45.68-45.68 45.68zm186.31-50.5c0 31.2-28.3 50.64-55.24 50.64-27.25 0-53.96-21.04-53.96-50.56v-78.44c0-8.28 6.71-15 15-15 8.28 0 15 6.72 15 15v78.44c0 5.95 1.86 11.1 10.95 16.91 14.85 9.48 38.25-.66 38.25-16.99v-78.36c0-8.28 6.72-15 15-15 8.29 0 15 6.72 15 15zm128.27-69.88-33.69 51.76-.14 53.79c-.02 8.28-6.73 14.97-15 14.97h-.03c-8.29-.02-14.99-6.75-14.97-15.04l.14-53.75-33.96-52c-4.53-6.94-2.58-16.24 4.35-20.77 6.94-4.52 16.24-2.57 20.76 4.36l23.84 36.5 23.56-36.19c4.52-6.94 13.81-8.91 20.75-4.39 6.95 4.52 8.91 13.81 4.39 20.76z"/><path d="m269.981 300.858c-6.661-9.959-21.302-9.959-27.963 0l-83.924 106.897c-7.475 11.176.535 26.172 13.981 26.172h25.621c9.29 0 16.82 7.531 16.82 16.82v44.432c0 9.29 7.531 16.82 16.82 16.82h49.324c9.29 0 16.82-7.531 16.82-16.82v-44.432c0-9.29 7.531-16.82 16.82-16.82h25.621c13.446 0 21.457-14.996 13.981-26.172z"/></g><g transform="matrix(0.1171875 0 0 0.1171875 219 171)"><path d="m494.47 24.725h-476.94c-9.666 0-17.53 7.864-17.53 17.53v323.678c0 9.666 7.864 17.53 17.53 17.53h98.577l2.023 9.414c2.152 10.021 10.293 17.639 20.14 19.397-4.048 7.262-6.365 15.616-6.365 24.504 0 27.844 22.653 50.497 50.497 50.497s50.497-22.653 50.497-50.497c0-8.729-2.228-16.947-6.143-24.118h41.938c-3.915 7.171-6.143 15.389-6.143 24.118 0 27.844 22.653 50.497 50.497 50.497s50.497-22.653 50.497-50.497c0-8.788-2.261-17.056-6.225-24.261 10.649-1.096 19.673-9.011 21.957-19.641l54.564-253.956h63.132v227.013c0 1.381-1.123 2.504-2.504 2.504h-81.859c-4.15 0-7.513 3.363-7.513 7.513s3.363 7.513 7.513 7.513h81.859c9.666 0 17.53-7.864 17.53-17.53v-323.678c.001-9.666-7.863-17.53-17.529-17.53zm-312.068 447.524c-19.559 0-35.472-15.913-35.472-35.472s15.912-35.472 35.472-35.472 35.472 15.913 35.472 35.472c0 19.56-15.913 35.472-35.472 35.472zm130.647 0c-19.559 0-35.472-15.913-35.472-35.472s15.913-35.472 35.472-35.472 35.472 15.913 35.472 35.472c-.001 19.56-15.914 35.472-35.472 35.472zm162.559-348.355c5.038-4.584 8.204-11.19 8.204-18.521 0-13.809-11.234-25.043-25.043-25.043h-23.634c-23.138 0-43.46 16.42-48.322 39.042l-.971 4.521h-70.945c-4.15 0-7.513 3.363-7.513 7.513s3.363 7.513 7.513 7.513h67.718l-7.625 35.491h-272.805c-7.602 0-14.702 3.392-19.48 9.305-4.777 5.912-6.601 13.566-5.004 20.999l18.524 86.217c.872 4.058 4.865 6.633 8.923 5.768 4.056-.872 6.638-4.867 5.767-8.923l-18.524-86.217c-.638-2.974.091-6.036 2.002-8.401 1.911-2.364 4.751-3.721 7.792-3.721h278.875c3.541 0 6.601-2.473 7.346-5.935l13.1-60.973c3.383-15.745 17.527-27.172 33.631-27.172h23.634c5.523 0 10.017 4.494 10.017 10.017s-4.494 10.017-10.017 10.017h-23.634c-6.724 0-12.631 4.772-14.045 11.348l-56.504 262.983c-.985 4.585-5.103 7.913-9.793 7.913h-9.887c-8.697-7.091-19.788-11.353-31.858-11.353s-23.161 4.262-31.858 11.353h-66.93c-8.697-7.091-19.788-11.353-31.858-11.353s-23.161 4.262-31.858 11.353h-7.93c-4.69 0-8.809-3.328-9.794-7.913l-15.419-71.761c-.871-4.058-4.862-6.63-8.923-5.768-4.057.872-6.638 4.867-5.767 8.923l10.168 47.322h-95.351c-1.381 0-2.504-1.123-2.504-2.504v-227.014h265.121c4.15 0 7.513-3.363 7.513-7.513s-3.363-7.513-7.513-7.513h-265.121v-81.64c0-1.381 1.124-2.504 2.504-2.504h476.94c1.381 0 2.504 1.123 2.504 2.504v81.64z"/><circle cx="55" cy="81" r="14"/><circle cx="100" cy="81" r="14"/><circle cx="144" cy="81" r="14"/><path d="m269.819 334.913h-44.186c-2.1 0-4.104.878-5.526 2.423s-2.134 3.614-1.961 5.706l2.278 27.661c.321 3.897 3.577 6.897 7.487 6.897h39.631c3.91 0 7.167-2.999 7.487-6.897l2.277-27.661c.172-2.092-.539-4.161-1.961-5.706-1.423-1.544-3.427-2.423-5.526-2.423zm-9.198 27.661h-25.791l-1.04-12.635h27.873z"/><path d="m122.479 246.223c.744 3.462 3.804 5.935 7.345 5.935h52.577c4.268.093 7.93-3.884 7.487-8.129l-2.277-27.661c-.321-3.897-3.577-6.897-7.487-6.897h-56.243c-4.643-.116-8.434 4.577-7.345 9.091zm50.726-21.726 1.04 12.635h-38.35l-2.715-12.635z"/><path d="m150.834 334.913c-2.27 0-4.418 1.026-5.844 2.791-1.426 1.766-1.978 4.081-1.501 6.3l5.943 27.661c.744 3.462 3.804 5.935 7.345 5.935h35.954c2.1 0 4.104-.878 5.526-2.423s2.134-3.614 1.961-5.706l-2.278-27.661c-.321-3.897-3.577-6.897-7.487-6.897zm12.013 27.661-2.715-12.635h23.401l1.04 12.635z"/><path d="m137.357 272.192c-2.27 0-4.417 1.026-5.844 2.791-1.426 1.766-1.978 4.081-1.501 6.3l5.943 27.662c.743 3.462 3.804 5.935 7.345 5.935h44.266c2.1 0 4.104-.878 5.526-2.423s2.134-3.614 1.961-5.706l-2.278-27.662c-.321-3.897-3.577-6.897-7.487-6.897zm12.013 27.661-2.715-12.636h31.713l1.04 12.636z"/><path d="m210.094 245.261c.321 3.897 3.577 6.897 7.487 6.897h60.288c3.91 0 7.167-2.999 7.487-6.897l2.277-27.661c.44-4.245-3.218-8.222-7.488-8.129h-64.843c-4.265-.093-7.932 3.884-7.487 8.129zm61.896-20.764-1.041 12.635h-46.449l-1.04-12.635z"/><path d="m307.885 314.879h46.223c3.541 0 6.601-2.473 7.346-5.935l5.943-27.662c.476-2.219-.075-4.534-1.502-6.3-1.426-1.765-3.574-2.791-5.844-2.791h-49.888c-3.91 0-7.167 2.999-7.487 6.897l-2.277 27.662c-.172 2.092.539 4.161 1.961 5.706 1.421 1.544 3.425 2.423 5.525 2.423zm9.197-27.662h33.67l-2.715 12.636h-31.996z"/><path d="m313.049 252.158h54.535c3.541 0 6.601-2.473 7.346-5.935l5.943-27.661c1.088-4.514-2.703-9.206-7.346-9.091h-58.2c-3.91 0-7.167 2.999-7.487 6.897l-2.277 27.661c-.445 4.245 3.218 8.222 7.486 8.129zm9.197-27.661h41.982l-2.715 12.635h-40.308z"/><path d="m274.983 272.192h-54.515c-2.1 0-4.104.878-5.526 2.423s-2.134 3.614-1.961 5.706l2.277 27.662c.321 3.897 3.577 6.897 7.487 6.897h49.96c3.91 0 7.167-2.999 7.487-6.897l2.277-27.662c.172-2.092-.539-4.161-1.961-5.706s-3.426-2.423-5.525-2.423zm-9.198 27.661h-36.12l-1.04-12.636h38.201z"/><path d="m302.72 377.599h37.91c3.541 0 6.601-2.473 7.346-5.935l5.944-27.661c.476-2.219-.075-4.534-1.502-6.3-1.426-1.765-3.574-2.791-5.844-2.791h-41.576c-3.91 0-7.167 2.999-7.487 6.897l-2.277 27.661c-.172 2.092.539 4.161 1.961 5.706s3.426 2.423 5.525 2.423zm9.198-27.66h25.357l-2.715 12.635h-23.683z"/><path d="m182.402 423.882c-7.122 0-12.895 5.774-12.895 12.895 0 7.122 5.773 12.896 12.895 12.896s12.895-5.774 12.895-12.896c0-7.121-5.773-12.895-12.895-12.895z"/><path d="m313.049 423.882c-7.122 0-12.895 5.774-12.895 12.895 0 7.122 5.773 12.896 12.895 12.896s12.895-5.774 12.895-12.896c0-7.121-5.773-12.895-12.895-12.895z"/></g></defs><g fi:class="KUsePattern"><pattern id="pattern_L1_6" width="350" height="350" patternUnits="userSpaceOnUse"><use xlink:href="#L1_6" x="-350" y="-350"/><use xlink:href="#L1_6" x="0" y="-350"/><use xlink:href="#L1_6" x="350" y="-350"/><use xlink:href="#L1_6" x="-350" y="0"/><use xlink:href="#L1_6" x="0" y="0"/><use xlink:href="#L1_6" x="350" y="0"/><use xlink:href="#L1_6" x="-350" y="350"/><use xlink:href="#L1_6" x="0" y="350"/><use xlink:href="#L1_6" x="350" y="350"/></pattern><rect x="0" y="0" width="100%" height="100%" fill="url(#pattern_L1_6)"/></g><g fi:class="KUsePattern" opacity="1"><pattern id="pattern_L1_5" width="350" height="350" patternUnits="userSpaceOnUse"><use xlink:href="#L1_5" x="-350" y="-350"/><use xlink:href="#L1_5" x="0" y="-350"/><use xlink:href="#L1_5" x="350" y="-350"/><use xlink:href="#L1_5" x="-350" y="0"/><use xlink:href="#L1_5" x="0" y="0"/><use xlink:href="#L1_5" x="350" y="0"/><use xlink:href="#L1_5" x="-350" y="350"/><use xlink:href="#L1_5" x="0" y="350"/><use xlink:href="#L1_5" x="350" y="350"/></pattern><rect x="0" y="0" width="100%" height="100%" fill="url(#pattern_L1_5)"/></g><g fi:class="KUsePattern"><pattern id="pattern_L1_8" width="350" height="350" patternUnits="userSpaceOnUse"><use xlink:href="#L1_8" x="-350" y="-350"/><use xlink:href="#L1_8" x="0" y="-350"/><use xlink:href="#L1_8" x="350" y="-350"/><use xlink:href="#L1_8" x="-350" y="0"/><use xlink:href="#L1_8" x="0" y="0"/><use xlink:href="#L1_8" x="350" y="0"/><use xlink:href="#L1_8" x="-350" y="350"/><use xlink:href="#L1_8" x="0" y="350"/><use xlink:href="#L1_8" x="350" y="350"/></pattern><rect x="0" y="0" width="100%" height="100%" fill="url(#pattern_L1_8)"/></g><g fi:class="KUsePattern"><pattern id="pattern_L1_13" width="350" height="350" patternUnits="userSpaceOnUse"><use xlink:href="#L1_13" x="-350" y="-350"/><use xlink:href="#L1_13" x="0" y="-350"/><use xlink:href="#L1_13" x="350" y="-350"/><use xlink:href="#L1_13" x="-350" y="0"/><use xlink:href="#L1_13" x="0" y="0"/><use xlink:href="#L1_13" x="350" y="0"/><use xlink:href="#L1_13" x="-350" y="350"/><use xlink:href="#L1_13" x="0" y="350"/><use xlink:href="#L1_13" x="350" y="350"/></pattern><rect x="0" y="0" width="100%" height="100%" fill="url(#pattern_L1_13)"/></g><g fi:class="KUsePattern" transform="matrix(1 0 0 1 20 20)"><pattern id="pattern_UNKNOWN" width="350" height="350" patternUnits="userSpaceOnUse"><use xlink:href="#UNKNOWN" x="-350" y="-350"/><use xlink:href="#UNKNOWN" x="0" y="-350"/><use xlink:href="#UNKNOWN" x="350" y="-350"/><use xlink:href="#UNKNOWN" x="-350" y="0"/><use xlink:href="#UNKNOWN" x="0" y="0"/><use xlink:href="#UNKNOWN" x="350" y="0"/><use xlink:href="#UNKNOWN" x="-350" y="350"/><use xlink:href="#UNKNOWN" x="0" y="350"/><use xlink:href="#UNKNOWN" x="350" y="350"/></pattern><rect x="0" y="0" width="100%" height="100%" fill="url(#pattern_UNKNOWN)"/></g><g fi:class="KUsePattern" transform="matrix(1 0 0 1 20 20)"><pattern id="pattern_UNKNOWN" width="350" height="350" patternUnits="userSpaceOnUse"><use xlink:href="#UNKNOWN" x="-350" y="-350"/><use xlink:href="#UNKNOWN" x="0" y="-350"/><use xlink:href="#UNKNOWN" x="350" y="-350"/><use xlink:href="#UNKNOWN" x="-350" y="0"/><use xlink:href="#UNKNOWN" x="0" y="0"/><use xlink:href="#UNKNOWN" x="350" y="0"/><use xlink:href="#UNKNOWN" x="-350" y="350"/><use xlink:href="#UNKNOWN" x="0" y="350"/><use xlink:href="#UNKNOWN" x="350" y="350"/></pattern><rect x="0" y="0" width="100%" height="100%" fill="url(#pattern_UNKNOWN)"/></g><g fi:class="KUsePattern" transform="matrix(1 0 0 1 20 20)"><pattern id="pattern_UNKNOWN" width="350" height="350" patternUnits="userSpaceOnUse"><use xlink:href="#UNKNOWN" x="-350" y="-350"/><use xlink:href="#UNKNOWN" x="0" y="-350"/><use xlink:href="#UNKNOWN" x="350" y="-350"/><use xlink:href="#UNKNOWN" x="-350" y="0"/><use xlink:href="#UNKNOWN" x="0" y="0"/><use xlink:href="#UNKNOWN" x="350" y="0"/><use xlink:href="#UNKNOWN" x="-350" y="350"/><use xlink:href="#UNKNOWN" x="0" y="350"/><use xlink:href="#UNKNOWN" x="350" y="350"/></pattern><rect x="0" y="0" width="100%" height="100%" fill="url(#pattern_UNKNOWN)"/></g><g fi:class="KUsePattern" transform="matrix(1 0 0 1 20 20)" opacity="1"><pattern id="pattern_UNKNOWN" width="350" height="350" patternUnits="userSpaceOnUse"><use xlink:href="#UNKNOWN" x="-350" y="-350"/><use xlink:href="#UNKNOWN" x="0" y="-350"/><use xlink:href="#UNKNOWN" x="350" y="-350"/><use xlink:href="#UNKNOWN" x="-350" y="0"/><use xlink:href="#UNKNOWN" x="0" y="0"/><use xlink:href="#UNKNOWN" x="350" y="0"/><use xlink:href="#UNKNOWN" x="-350" y="350"/><use xlink:href="#UNKNOWN" x="0" y="350"/><use xlink:href="#UNKNOWN" x="350" y="350"/></pattern><rect x="0" y="0" width="100%" height="100%" fill="url(#pattern_UNKNOWN)"/></g></svg>